Coordinates
version=1
nRows=17
nColumns=36
inDegrees=yes

Units are S.I. units (second, meters, Newtons, ...)
If the header above contains a line with 'inDegrees', this indicates whether rotational values are in degrees (yes) or radians (no).

endheader
time	pelvis_tilt	pelvis_list	pelvis_rotation	pelvis_tx	pelvis_ty	pelvis_tz	hip_flexion_r	hip_adduction_r	hip_rotation_r	knee_angle_r	knee_angle_r_beta	ankle_angle_r	subtalar_angle_r	mtp_angle_r	hip_flexion_l	hip_adduction_l	hip_rotation_l	knee_angle_l	knee_angle_l_beta	ankle_angle_l	subtalar_angle_l	mtp_angle_l	lumbar_extension	lumbar_bending	lumbar_rotation	arm_flex_r	arm_add_r	arm_rot_r	elbow_flex_r	pro_sup_r	arm_flex_l	arm_add_l	arm_rot_l	elbow_flex_l	pro_sup_l
      2.63333330	    -29.44051449	     -4.53951879	     12.64631551	      0.78582269	      0.65996806	     -0.17131643	     91.41117017	    -18.90956573	      1.86043403	     84.75999991	      1.47934107	     26.85157413	     -5.87999412	     -7.49999987	     92.78891252	     -7.34349160	      4.74056330	     83.18184387	      1.45179705	     23.28794071	     -3.61930670	     -7.49999987	    -39.10706350	      1.89277568	     -1.98221499	     92.77661202	      0.43247678	     80.16241040	    128.85555757	     90.35639197	     91.99216689	      9.57728119	     72.60129421	    121.27664332	     87.56588467
      2.65000000	    -29.32243663	     -4.66155555	     12.83859079	      0.78396465	      0.65415508	     -0.16935484	     92.24971506	    -18.59668622	      1.94979034	     85.45364849	      1.49144752	     26.39289772	     -6.89913342	     -7.49999987	     93.72786436	     -7.48871517	      4.98606615	     83.70182576	      1.46087245	     22.40775470	     -3.87426852	     -7.49999987	    -40.65832046	      1.81292976	     -1.96200165	     94.85130251	      0.52330087	     78.83696986	    129.17710131	     89.98178390	     94.91469136	      9.55706903	     72.61357434	    121.91904710	     88.06546213
      2.66666670	    -29.46318739	     -4.83009271	     12.87281768	      0.78396826	      0.64487304	     -0.17677775	     93.47219889	    -18.62020788	      2.18539856	     86.59877284	      1.51143371	     26.61876184	     -7.07289357	     -7.49999987	     95.17207408	     -7.49248907	      5.14712569	     84.96148601	      1.48285767	     22.31688811	     -3.89632696	     -7.49999987	    -41.09003270	      2.05343787	     -1.95891411	     95.73721447	      0.19045018	     78.36199234	    129.25572877	     89.92470827	     96.01200292	      9.55380139	     72.13483713	    121.99450142	     88.13584757
      2.68333330	    -29.71259438	     -4.97435294	     12.85060571	      0.77017790	      0.64156432	     -0.17385327	     94.77847930	    -18.55941543	      2.48776494	     86.91588005	      1.51696828	     25.94689121	     -7.23073764	     -7.49999987	     96.71442327	     -7.39116765	      5.17095218	     85.79377564	      1.49738386	     21.69364491	     -3.97194966	     -7.49999987	    -42.06239464	      2.15221334	     -2.01059138	     98.25472963	      0.28122722	     77.13646244	    129.88399216	     89.48777995	     98.42793222	      9.50632553	     71.22819751	    121.96200795	     88.36406389
      2.70000000	    -30.03075351	     -5.06189533	     12.59036206	      0.77065923	      0.63775819	     -0.18001906	     95.98416794	    -18.65027417	      2.74344756	     87.25704636	      1.52292275	     25.69853888	     -7.03969779	     -7.49999987	     98.04705330	     -7.20856856	      5.28072299	     86.64118990	      1.51217403	     21.39768359	     -4.12079475	     -7.49999987	    -42.45564120	      2.42391767	     -1.90301751	     99.59095122	      0.14176278	     76.63408921	    129.79657860	     89.37413875	     99.27059434	      9.31783315	     70.83023398	    121.61701421	     88.38320706
      2.71666670	    -30.15210866	     -5.20596054	     12.41277611	      0.76269731	      0.63074609	     -0.18305012	     96.85423896	    -18.89228658	      2.87343479	     87.33092746	      1.52421222	     25.28819681	     -6.87199004	     -7.49999987	     99.34002662	     -6.89139105	      5.35805070	     87.51754069	      1.52746924	     21.11387051	     -4.56533547	     -7.49999987	    -43.27793562	      2.85654519	     -1.35594517	    101.55327816	     -0.21207805	     76.31106850	    130.78239802	     88.47565186	    101.12635497	     10.07050316	     69.92673437	    121.13557504	     88.53243339
      2.73333330	    -30.37583881	     -5.16879965	     12.18116007	      0.75689543	      0.62750374	     -0.18193235	     98.01569298	    -18.96419729	      3.30112543	     87.60769644	      1.52904275	     24.52147118	     -6.79931895	     -7.49999987	    100.51476879	     -6.58516283	      5.41461396	     88.18077004	      1.53904477	     20.62752764	     -4.92109694	     -7.49999987	    -43.97675399	      2.98378902	     -1.13595423	    103.41965884	     -0.52859626	     76.07404964	    130.93791442	     87.67804925	    103.03623324	     10.21402060	     69.26564949	    120.52946872	     88.51623912
      2.75000000	    -30.63576374	     -5.13202850	     11.74436137	      0.75724882	      0.62026295	     -0.18609087	     99.21802399	    -18.91980625	      3.66302125	     88.27489503	      1.54068757	     24.35900751	     -6.61001730	     -7.49999987	    101.84074328	     -6.44291194	      5.58855889	     89.28681446	      1.55834889	     20.72879636	     -4.99867457	     -7.49999987	    -44.20813496	      3.13684630	     -0.95480977	    104.56722216	     -0.50995215	     76.04982639	    130.85453726	     87.48785789	    103.92454079	     10.01382896	     68.91558087	    120.21018245	     88.48486689
      2.76666670	    -30.89169005	     -5.07039746	     11.27887922	      0.75460496	      0.61612347	     -0.18221820	    100.15858894	    -18.55040463	      3.96467050	     88.67998155	      1.54775766	     24.03243468	     -6.51538265	     -7.49999987	    102.82427147	     -6.66575439	      5.80816188	     90.05522755	      1.57176023	     20.48099871	     -5.24405940	     -7.49999987	    -44.58542886	      3.14871422	     -0.61732947	    106.22696491	     -0.13913023	     76.83809635	    130.91716998	     79.99149434	    104.89089322	      9.87525730	     68.36114529	    120.46274339	     87.41156605
      2.78333330	    -30.95250124	     -4.84858572	     10.56553905	      0.75118459	      0.60840188	     -0.18385783	    101.27688690	    -18.16379291	      4.11679272	     89.47082942	      1.56156056	     23.85987098	     -6.38475260	     -7.49999987	    103.72684265	     -6.98215713	      6.08975429	     91.09929150	      1.58998258	     20.46368160	     -5.49751057	     -7.49999987	    -44.68725309	      2.83871416	     -0.26022107	    106.94339302	      0.15389803	     76.55427311	    130.74551334	     79.96428487	    105.64117637	      9.82947206	     67.73616678	    120.49878972	     87.37964464
      2.80000000	    -31.10981634	     -4.60743418	      9.92252005	      0.75179063	      0.60975028	     -0.18284893	    101.94990238	    -17.67019457	      4.26274848	     89.75194689	      1.56646698	     23.35835538	     -6.24971525	     -7.49999987	    104.22934041	     -7.48127821	      6.13986691	     91.66036726	      1.59977520	     20.12623090	     -5.95660618	     -7.49999987	    -44.93296143	      2.39609801	      0.17298326	    107.34698992	      0.42975647	     76.31426629	    130.64855550	     79.36162903	    105.95667082	     10.04745125	     67.27802190	    120.77372153	     86.66115199
      2.81666670	    -31.08802449	     -4.39671691	      9.55508746	      0.75246960	      0.60955028	     -0.18212946	    102.16629869	    -17.37169622	      4.41174969	     89.98276314	      1.57049549	     23.20751119	     -6.40430872	     -7.49999987	    104.25701572	     -7.76826359	      6.14296446	     91.95366687	      1.60489425	     19.89531856	     -6.31702888	     -7.49999987	    -45.11880644	      2.12979809	      0.42144689	    107.19320649	      0.41839993	     76.26711633	    130.32367361	     78.66358330	    105.87617106	     10.10019391	     67.12856576	    120.44082106	     85.85933809
      2.83333330	    -31.18081255	     -4.03940807	      9.06518646	      0.75222318	      0.60477876	     -0.18174745	    102.62872053	    -16.95508535	      4.61108351	     90.29077481	      1.57587130	     22.87621665	     -6.46320585	     -7.49999987	    104.36095728	     -8.31419227	      6.00828379	     92.14045168	      1.60815426	     19.64864508	     -6.60329872	     -7.49999987	    -45.25275581	      1.59888393	      0.80215822	    107.46363247	      0.25833673	     76.45253560	    130.73020914	     78.55974238	    106.20408508	     10.08388568	     66.86255991	    121.37134107	     85.74197451
      2.85000000	    -31.37862594	     -3.80918571	      8.76146056	      0.75190180	      0.60480166	     -0.18090709	    103.08426296	    -16.78091345	      4.74029966	     90.49298110	      1.57940047	     22.53605995	     -6.45143699	     -7.49999987	    104.49562050	     -8.60744189	      5.84519047	     92.26449754	      1.61031926	     19.40569442	     -6.83512522	     -7.49999987	    -45.06386534	      1.15720953	      1.04678141	    107.29150003	     -0.00331708	     76.58966559	    130.82501773	     77.60714464	    106.06760755	     10.22400758	     66.90824543	    121.34472764	     84.74255698
      2.86666670	    -31.52336104	     -3.57183569	      8.50614401	      0.75124970	      0.60444804	     -0.18077651	    103.37946516	    -16.63138526	      4.79544024	     90.53082540	      1.58006098	     22.41326664	     -6.43435943	     -7.49999987	    104.47084652	     -8.85420162	      5.57252751	     92.15912328	      1.60848014	     19.49349596	     -6.78447775	     -7.49999987	    -44.80934883	      0.74450043	      1.09428875	    107.04746367	      0.00396955	     76.82570286	    130.93550302	     76.97347336	    106.02081445	     10.32222575	     66.85426082	    121.40667958	     84.06773720
      2.88333330	    -31.72153855	     -3.29274575	      8.15669291	      0.74373972	      0.60488334	     -0.17801450	    103.63531889	    -16.34190212	      4.92805765	     90.13225709	      1.57310465	     22.11292827	     -6.17502014	     -7.49999987	    104.61513026	     -9.09610968	      5.44159832	     92.06675701	      1.60686804	     19.20132407	     -6.98380642	     -7.49999987	    -44.64983370	      0.23094280	      0.99803870	    107.51108876	      0.14608691	     76.86750694	    130.61625100	     77.06974117	    106.75864701	     10.29671017	     66.27723169	    120.98819786	     84.30073477
      2.90000000	    -31.88245770	     -3.14846352	      7.88749777	      0.74423503	      0.60929506	     -0.17769553	    103.49006934	    -16.01828372	      4.88875641	     89.50567813	      1.56216878	     21.87605350	     -6.08822524	     -7.49999987	    104.50282928	     -9.24482574	      5.41150759	     91.71571569	      1.60074121	     18.62402121	     -7.33498806	     -7.49999987	    -44.46054664	     -0.10925351	      0.81493987	    107.50845363	      0.23251193	     76.85394980	    130.62368676	     76.13538308	    106.84566510	     10.07092517	     66.08026724	    121.10326209	     83.12719397
